<svg id="Layer_1" data-name="Layer 1" xmlns="http://www.w3.org/2000/svg" viewBox="0 0 587.5278 81.8456"><defs><style>.cls-1{fill:#004b8d}.cls-2{fill:#fff}.cls-3{fill:#fdba2f}.cls-4{fill:#007dc3}</style></defs><title>FLC_logo_type_blue</title><path class="cls-1" d="M123.46 58.714a18.818 18.818 0 0 0 18.336-18.348c.053-9.45-7.628-16.777-17.869-17.016a18.743 18.743 0 0 0-13.459 5.298 17.096 17.096 0 0 0-5.325 12.284 17.311 17.311 0 0 0 5.214 12.385 18.622 18.622 0 0 0 13.103 5.397zm-8.076-29.649A11.216 11.216 0 0 1 124.019 26c7.56.371 11.667 7.619 11.782 14.565.097 4.976-1.421 9.4-4.13 12.16a10.88 10.88 0 0 1-8.1 3.194c-8.101-.1-12.559-7.747-12.63-14.898-.049-4.853 1.566-9.202 4.443-11.956zm333.352-.942a19.088 19.088 0 0 0-12.487-4.872 18.823 18.823 0 0 0-13.445 5.287 17.139 17.139 0 0 0-5.31 12.245 17.329 17.329 0 0 0 5.214 12.355 18.536 18.536 0 0 0 13.074 5.383c9.734 0 18.274-8.549 18.274-18.295a16.036 16.036 0 0 0-5.32-12.103zm-4.771 24.454a10.851 10.851 0 0 1-8.1 3.192c-8.073-.098-12.53-7.734-12.622-14.888-.053-4.847 1.571-9.21 4.434-11.955a11.3 11.3 0 0 1 8.645-3.07c7.565.383 11.653 7.619 11.787 14.57.096 4.966-1.417 9.387-4.144 12.151zM320.532 27.516V54.82a3.798 3.798 0 0 1-2.502 3.576v.14h9.687v-.14a3.818 3.818 0 0 1-2.502-3.576V27.516a3.854 3.854 0 0 1 2.502-3.592v-.205h-9.687v.205a3.846 3.846 0 0 1 2.502 3.592zm29.776 21.285c-.038-5.46-3.658-7.83-8.004-10.146l-1.412-.732c-2.993-1.516-6.708-3.417-6.708-6.892.044-3.67 2.983-5.392 5.7-5.43 4.752-.085 7.123 4.592 7.73 6.035l.164-.022v-5.749l-.076-.088c-.087-.087-2.194-2.338-7.432-2.487a10.398 10.398 0 0 0-7.402 2.723 9.112 9.112 0 0 0-2.804 6.512c-.082 4.359 2.515 7.636 8.144 10.275l.28.132c3.647 1.703 7.426 3.475 7.29 7.484-.183 4.494-3.527 6.091-6.591 6.091-6.78-.036-8.998-8.258-9.021-8.344l-.17.01v7.293a13.812 13.812 0 0 0 9.007 3.624c6.655 0 11.305-4.23 11.305-10.289zM171.75 28.622a3.117 3.117 0 0 1 3.018-2.395l8.182-.005c-.029 0-.029 28.42-.029 28.42a3.815 3.815 0 0 1-2.525 3.588v.21h10.01v-.21a3.838 3.838 0 0 1-2.507-3.588l.005-28.403c0-.012 8.202-.012 8.202-.012a3.024 3.024 0 0 1 2.959 2.354l.169-.005-.006-4.958h-27.627v5.004zm386.853 13.886a2.477 2.477 0 0 1 1.836 2.296v8.334a13.361 13.361 0 0 1-9.112 3.121 12.574 12.574 0 0 1-9.315-3.605c-2.853-2.826-4.478-7.245-4.478-12.15a16.509 16.509 0 0 1 4.67-11.95 11.262 11.262 0 0 1 8.467-3.235c5.734.26 9.604 2.63 11.83 7.255h.12v-6.398l-.066-.038a30.196 30.196 0 0 0-11.595-2.887 19.23 19.23 0 0 0-13.648 5.535 16.945 16.945 0 0 0-5.368 12.05c-.062 10.052 7.821 17.495 18.726 17.685 5.003.031 11.302-2.301 13.97-3.889.025-.036.02-9.984.02-9.984a2.359 2.359 0 0 1 1.48-2.128v-.167h-7.537zm6.559-.082zm26.918 9.691h-.178a3.797 3.797 0 0 1-3.45 3.286L576.39 55.4V40.277s8.347 0 8.395.016a2.37 2.37 0 0 1 2.024 1.393h.14v-5.37h-.14a2.395 2.395 0 0 1-2.17 1.568h-8.25l.01-11.95 9.61.016a4.168 4.168 0 0 1 3.56 2.176h.073l.028-4.63-20.504.006v.155a3.909 3.909 0 0 1 2.511 3.61V54.53a3.848 3.848 0 0 1-2.51 3.593v.195h22.913zm-.043.014zM271.73 58.529l.01-6.135h-.183a3.798 3.798 0 0 1-3.455 3.299l-12.076-.008V40.544h8.404a2.402 2.402 0 0 1 2.029 1.405h.159v-5.376h-.16a2.382 2.382 0 0 1-2.149 1.554h-8.289l.005-11.965 9.637.01a4.231 4.231 0 0 1 3.586 2.2h.053v-4.66l-20.52.007v.154a3.958 3.958 0 0 1 2.507 3.634l.01 27.292a3.874 3.874 0 0 1-2.526 3.626v.104zm141.475-14.277c-2.515 7.487-8.52 11.94-16.134 11.94a16.622 16.622 0 0 1-12.197-4.942A21.143 21.143 0 0 1 379 36.089a21.607 21.607 0 0 1 6.38-15.11 15.567 15.567 0 0 1 11.44-4.503c8.28.368 12.963 3.616 15.696 10.864h.15v-9.426c-1.967-1.337-9.595-4.346-15.595-4.224-13.734.253-24.63 10.06-24.789 22.344a21.948 21.948 0 0 0 6.15 15.866 24.812 24.812 0 0 0 17.805 7.245 28.363 28.363 0 0 0 17.093-5.204c.025-.036.025-9.689.025-9.689zM90.113 58.43v-.2a4.952 4.952 0 0 1-3.157-4.58l.01-18.084c.024-.009 10.732.02 10.732.02a3.106 3.106 0 0 1 2.559 1.793h.188v-6.82h-.188a3.076 3.076 0 0 1-2.732 1.988H87.009l.024-15.144s12.592-.004 12.617.012a5.158 5.158 0 0 1 4.09 2.733h.12l-.004-5.899c-.014-.01-25.839.03-26.022.03v.187a4.755 4.755 0 0 1 3.142 4.58l.004 34.603a4.864 4.864 0 0 1-3.194 4.56v.216s11.715.014 12.327.005zm64.318-.196a3.823 3.823 0 0 1-2.51-3.568V42.508h2.592a4.892 4.892 0 0 1 3.981 2.21l7.537 11.712a4.126 4.126 0 0 0 1.05 1.183 4.766 4.766 0 0 0 1.716.817c.024.01 6.01 0 6.01 0v-.178a6.43 6.43 0 0 1-2.97-1.709 7.212 7.212 0 0 1-.635-.638c-.078-.118-.425-.561-.448-.603a51.128 51.128 0 0 1-4.16-6.462 28.086 28.086 0 0 0-6.394-8.091.729.729 0 0 0 .125-.03c1.109-.28 6.829-2.29 6.829-8.261v-.267c-.207-6.773-6.973-8.574-10.51-8.574h-11.917v.179a3.928 3.928 0 0 1 2.477 3.61v27.26a3.805 3.805 0 0 1-2.492 3.569v.195h9.72zM152.2 25.656h3.47a7.096 7.096 0 0 1-.048 14.192l-3.422-.008zM245.452 51.5a.219.219 0 0 0-.159-.043 4.958 4.958 0 0 1-4.703 3.469l-14.934-.012c.063 0 .063-35.744.063-35.744a4.664 4.664 0 0 1 2.997-4.571v-.193h-12.081v.17a4.84 4.84 0 0 1 3.03 4.594v34.595a4.877 4.877 0 0 1-3.2 4.559v.205h28.972l.015-7.029zm30.378-25.14l13.05 32.487h.165s6.216-16.281 6.236-16.209c.182.622 6.163 16.209 6.163 16.209h.14l11.936-32.225a4.172 4.172 0 0 1 1.099-1.834 3.735 3.735 0 0 1 1.272-.864v-.213l-6.058.007v.199l.106.036c.054.021.097.043.097.043a1.74 1.74 0 0 1 .708.672 1.337 1.337 0 0 1 .159.405 1.704 1.704 0 0 1 .034.354 1.328 1.328 0 0 1-.058.438c-.857 2.579-8.26 22.804-8.592 23.78-.024-.094-7.773-20.606-8.935-23.724a1.23 1.23 0 0 1-.12-.52 1.513 1.513 0 0 1 .482-1.084 1.557 1.557 0 0 1 .727-.4v-.198h-8.105v.188a.34.34 0 0 0 .11.046 4.935 4.935 0 0 1 2.111 2.263s5.244 13.18 5.282 13.283c-.024.039-3.513 9.445-3.696 9.942-.072-.157-7.696-19.202-9.127-22.967a2.09 2.09 0 0 1-.101-.613 1.914 1.914 0 0 1 .775-1.537 3.622 3.622 0 0 1 .608-.37v-.23h-9.055v.188a5.869 5.869 0 0 1 2.588 2.447zm254.481 25.844h-.198a3.777 3.777 0 0 1-3.406 3.154l-12.029-.01V40.262l8.376.02a2.325 2.325 0 0 1 2.004 1.395h.15V36.33h-.15a2.357 2.357 0 0 1-2.13 1.542h-8.255l.005-11.917 9.585.012a4.216 4.216 0 0 1 3.566 2.185h.078v-4.629l-20.437.005v.154a3.881 3.881 0 0 1 2.5 3.607v27.187a3.824 3.824 0 0 1-2.506 3.592v.195l22.847.012zm-25.854 0h-.193a3.805 3.805 0 0 1-3.412 3.154c-.005 0-9.54-.01-11.998-.01-.015-.005-.02-28.037-.02-28.037a3.487 3.487 0 0 1 2.351-3.583v-.171h-9.478v.15a3.69 3.69 0 0 1 2.356 3.604v27.191a3.842 3.842 0 0 1-2.491 3.59l-.01.154c.01.029 22.895.029 22.895.029zm-25.983 0h-.203a3.802 3.802 0 0 1-3.417 3.154s-9.532-.01-12.009-.01c-.004-.005-.004-28.037-.004-28.037a3.498 3.498 0 0 1 2.347-3.583v-.171h-9.465v.15a3.68 3.68 0 0 1 2.352 3.604v27.191a3.83 3.83 0 0 1-2.502 3.59l-.01.154c.01.029 22.91.029 22.91.029-.015 0 0-5.156 0-6.071zm119.353.976a2.733 2.733 0 1 1-.015 0zm-.015.43a2.333 2.333 0 0 0 .015 4.658 2.333 2.333 0 0 0 0-4.659zm-.51 3.924h-.49v-3.071a5.723 5.723 0 0 1 .868-.073 1.632 1.632 0 0 1 .954.231.742.742 0 0 1 .282.638.762.762 0 0 1-.598.745v.027c.27.047.448.291.513.743a2.53 2.53 0 0 0 .194.76h-.514a2.268 2.268 0 0 1-.208-.783.573.573 0 0 0-.664-.538h-.337zm0-1.7h.354c.403 0 .747-.147.747-.525 0-.27-.2-.538-.747-.538a2.577 2.577 0 0 0-.354.023z" transform="translate(-13 -12.018)"/><path class="cls-2" d="M13 12.018l.011 81.846S48.009 55.09 50.375 52.471c.005-.003 10.49 9.646 10.49 9.646v-50.1z" transform="translate(-13 -12.018)"/><path class="cls-1" d="M1.935 1.929v43.779l22-20.256 21.999 20.253V1.929H1.935z"/><path class="cls-3" d="M23.841 39.399l5.421-5.423-5.321-4.225-5.441 4.315 5.341 5.333z"/><path class="cls-4" d="M1.945 76.779L35.863 39.21l-4.072-3.245L1.945 62.814v13.965zm0-15.483l19.698-19.698-5.589-5.59L1.945 47.207v14.089z"/><path class="cls-2" d="M55.43 28.837a5.796 5.796 0 0 1-9.6 2.371 7.165 7.165 0 0 1-1.99-5.136 7.32 7.32 0 0 1 2.162-5.119 5.269 5.269 0 0 1 3.875-1.525c2.806.124 4.392 1.224 5.317 3.68h.052v-3.193a11.824 11.824 0 0 0-5.283-1.432c-4.653.086-8.346 3.408-8.398 7.571a7.427 7.427 0 0 0 2.083 5.373 8.407 8.407 0 0 0 6.032 2.457 9.62 9.62 0 0 0 5.79-1.764c.009-.011.009-3.283.009-3.283zm-32.76 4.805v-.069a1.677 1.677 0 0 1-1.069-1.552l.003-6.126c.008-.004 3.636.006 3.636.006a1.047 1.047 0 0 1 .866.607h.065v-2.31h-.065a1.038 1.038 0 0 1-.925.674H21.62l.007-5.13s4.266-.003 4.274.004a1.744 1.744 0 0 1 1.387.924h.04v-1.997c-.006-.003-8.754.01-8.817.01v.062a1.711 1.711 0 0 1 .905.816 1.735 1.735 0 0 1 .16.737l.001 11.723a1.65 1.65 0 0 1-1.083 1.545v.073s3.97.006 4.176.003zm17.247-2.349a.076.076 0 0 0-.055-.014 1.678 1.678 0 0 1-1.593 1.175l-5.059-.005c.02 0 .02-12.11.02-12.11a1.575 1.575 0 0 1 1.015-1.547v-.066h-4.09v.058a1.64 1.64 0 0 1 1.025 1.555v11.722a1.65 1.65 0 0 1-1.084 1.544v.07h9.815z" transform="translate(-13 -12.018)"/></svg>